<svg width="25" height="24" viewBox="0 0 25 24" fill="none" xmlns="http://www.w3.org/2000/svg">
<path d="M3.25 15.75V18.25C3.25 19.568 4.4375 20.75 5.75 20.75H9.5V23.25H5.75C2.98857 23.25 0.75 21.0114 0.75 18.25V15.75H3.25ZM19.5 9.5L25 23.25H22.3063L20.805 19.5H15.6925L14.1938 23.25H11.5012L17 9.5H19.5ZM18.25 13.1065L16.6912 17H19.8063L18.25 13.1065ZM0.75 0.75H8.25C10.3211 0.75 12 2.42894 12 4.5C12 5.46098 11.6385 6.33753 11.0441 7.0011C11.639 7.66355 12 8.53961 12 9.5C12 11.5711 10.3211 13.25 8.25 13.25H0.75V0.75ZM8.25 8.25H3.25V10.75H8.25C8.94035 10.75 9.5 10.1904 9.5 9.5C9.5 8.8125 8.9375 8.25 8.25 8.25ZM18.25 0.75C21.0114 0.75 23.25 2.98857 23.25 5.75V8.25H20.75V5.75C20.75 4.36929 19.6308 3.25 18.25 3.25H14.5V0.75H18.25ZM8.25 3.25H3.25V5.75H8.25C8.94035 5.75 9.5 5.19035 9.5 4.5C9.5 3.8125 8.9375 3.25 8.25 3.25Z" fill="black" fill-opacity="0.6"/>
</svg>
