<svg width="18" height="22" viewBox="0 0 18 22" fill="none" xmlns="http://www.w3.org/2000/svg">
<path d="M8.9998 2C7.3429 2 5.99976 3.34315 5.99976 5V9C5.99976 10.6569 7.3429 12 8.9998 12C10.6566 12 11.9998 10.6569 11.9998 9V5C11.9998 3.34315 10.6566 2 8.9998 2ZM8.9998 0C11.7612 0 13.9998 2.23858 13.9998 5V9C13.9998 11.7614 11.7612 14 8.9998 14C6.23833 14 3.99976 11.7614 3.99976 9V5C3.99976 2.23858 6.23833 0 8.9998 0ZM0.0546875 10H2.07065C2.55588 13.3923 5.47329 16 8.9998 16C12.5262 16 15.4436 13.3923 15.9289 10H17.9448C17.4837 14.1716 14.1714 17.4839 9.9998 17.9451V22H7.9998V17.9451C3.82814 17.4839 0.515837 14.1716 0.0546875 10Z" fill="#74205C"/>
</svg>
