<svg width="16" height="16" viewBox="0 0 16 16" fill="none" xmlns="http://www.w3.org/2000/svg">
<path d="M15.5 1.75V5.5C15.5 5.66576 15.4342 5.82473 15.3169 5.94194C15.1997 6.05915 15.0408 6.125 14.875 6.125H11.125C10.9592 6.125 10.8003 6.05915 10.6831 5.94194C10.5658 5.82473 10.5 5.66576 10.5 5.5C10.5 5.33424 10.5658 5.17526 10.6831 5.05805C10.8003 4.94084 10.9592 4.875 11.125 4.875H13.3664L12.2234 3.73203C11.0619 2.56516 9.48475 1.90683 7.83828 1.90156H7.80313C6.17045 1.89773 4.60189 2.53677 3.43672 3.68046C3.31736 3.79189 3.15914 3.85218 2.99589 3.84843C2.83265 3.84469 2.67736 3.77721 2.56323 3.66043C2.44911 3.54365 2.38522 3.38685 2.38523 3.22356C2.38524 3.06028 2.44914 2.90348 2.56328 2.78672C3.97541 1.40656 5.87486 0.638964 7.8494 0.650519C9.82394 0.662074 11.7143 1.45184 13.1102 2.84843L14.25 3.9914V1.75C14.25 1.58424 14.3158 1.42526 14.4331 1.30805C14.5503 1.19084 14.7092 1.125 14.875 1.125C15.0408 1.125 15.1997 1.19084 15.3169 1.30805C15.4342 1.42526 15.5 1.58424 15.5 1.75ZM12.5633 12.3195C11.3866 13.4689 9.80421 14.1081 8.15933 14.0985C6.51445 14.0888 4.93968 13.4311 3.77656 12.268L2.63359 11.125H4.875C5.04076 11.125 5.19973 11.0591 5.31694 10.9419C5.43415 10.8247 5.5 10.6658 5.5 10.5C5.5 10.3342 5.43415 10.1753 5.31694 10.0581C5.19973 9.94084 5.04076 9.875 4.875 9.875H1.125C0.95924 9.875 0.800269 9.94084 0.683058 10.0581C0.565848 10.1753 0.5 10.3342 0.5 10.5V14.25C0.5 14.4158 0.565848 14.5747 0.683058 14.6919C0.800269 14.8091 0.95924 14.875 1.125 14.875C1.29076 14.875 1.44973 14.8091 1.56694 14.6919C1.68415 14.5747 1.75 14.4158 1.75 14.25V12.0086L2.89297 13.1516C4.28688 14.5525 6.18 15.3427 8.15625 15.3484H8.19766C10.1571 15.3535 12.0396 14.5864 13.4375 13.2133C13.5516 13.0965 13.6155 12.9397 13.6156 12.7764C13.6156 12.6131 13.5517 12.4563 13.4375 12.3396C13.3234 12.2228 13.1681 12.1553 13.0049 12.1516C12.8416 12.1478 12.6834 12.2081 12.5641 12.3195H12.5633Z" fill="#A3929E"/>
</svg>
