<svg width="28" height="26" viewBox="0 0 28 26" fill="none" xmlns="http://www.w3.org/2000/svg">
<path d="M23.75 15.75V19.5H27.5V22H23.75V25.75H21.25V22H17.5V19.5H21.25V15.75H23.75ZM23.7603 0.75C24.445 0.75 25 1.30619 25 1.99175L25.0009 13.6771C24.2186 13.4005 23.3769 13.25 22.5 13.25V3.25H2.5L2.50125 20.75L14.1161 9.13394C14.566 8.68255 15.275 8.64779 15.7654 9.02903L15.8831 9.13465L20.3151 13.5732C17.2388 14.5086 15 17.3679 15 20.75C15 21.6269 15.1505 22.4686 15.4271 23.2509L1.23975 23.25C0.555063 23.25 0 22.6939 0 22.0082V1.99175C0 1.30595 0.569138 0.75 1.23975 0.75H23.7603ZM7.5 5.75C8.88071 5.75 10 6.86929 10 8.25C10 9.63075 8.88071 10.75 7.5 10.75C6.11929 10.75 5 9.63075 5 8.25C5 6.86929 6.11929 5.75 7.5 5.75Z" fill="white"/>
</svg>
